<svg xmlns="http://www.w3.org/2000/svg" xmlns:xlink="http://www.w3.org/1999/xlink" style="enable-background:new 0 0 295 295" id="Capa_1" width="32" height="32" x="0" y="0" version="1.1" viewBox="0 0 295 295" xml:space="preserve"><g><path fill="#FFF" d="M262,96.665h-1.408c0.048-0.883,0.076-1.771,0.076-2.666c0-26.693-21.64-48.333-48.333-48.333 c-11.735,0-22.491,4.185-30.863,11.14c-8.509-26.196-33.105-45.14-62.137-45.14c-30.851,0-56.69,21.39-63.54,50.144 c-1.005-0.09-2.02-0.144-3.048-0.144c-18.778,0-34,15.222-34,33.999c0,1.394,0.094,2.764,0.257,4.113 C7.777,105.046,0,116.445,0,129.665c0,18.226,14.774,33,33,33h229c18.226,0,33-14.774,33-33S280.226,96.665,262,96.665z"/><circle cx="144.835" cy="204" r="16.333" fill="#FFF"/><circle cx="61.335" cy="204" r="16.333" fill="#FFF"/><circle cx="186.835" cy="267" r="16.333" fill="#FFF"/><circle cx="103.335" cy="267" r="16.333" fill="#FFF"/><circle cx="228.335" cy="204" r="16.333" fill="#FFF"/></g></svg>